<?xml version="1.0" encoding="UTF-8" standalone="no"?>
<svg
   id="Capa_1"
   data-name="Capa 1"
   viewBox="0 0 282.88 335.27"
   version="1.1"
   sodipodi:docname="dino2(grueso).svg"
   inkscape:export-filename="dino2blanco.png"
   inkscape:export-xdpi="200.43547"
   inkscape:export-ydpi="200.43547"
   inkscape:version="1.3.2 (091e20ef0f, 2023-11-25, custom)"
   xmlns:inkscape="http://www.inkscape.org/namespaces/inkscape"
   xmlns:sodipodi="http://sodipodi.sourceforge.net/DTD/sodipodi-0.dtd"
   xmlns="http://www.w3.org/2000/svg"
   xmlns:svg="http://www.w3.org/2000/svg">
  <sodipodi:namedview
     id="namedview2"
     pagecolor="#ffffff"
     bordercolor="#000000"
     borderopacity="0.25"
     inkscape:showpageshadow="2"
     inkscape:pageopacity="0.0"
     inkscape:pagecheckerboard="0"
     inkscape:deskcolor="#d1d1d1"
     inkscape:zoom="1.1798444"
     inkscape:cx="95.351553"
     inkscape:cy="100.86075"
     inkscape:window-width="1366"
     inkscape:window-height="747"
     inkscape:window-x="0"
     inkscape:window-y="0"
     inkscape:window-maximized="1"
     inkscape:current-layer="Capa_1" />
  <defs
     id="defs1">
    <style
       id="style1">.cls-1{fill:none;}.cls-1,.cls-2{stroke:#000;stroke-miterlimit:10;stroke-width:8px;}</style>
  </defs>
  <title
     id="title1">dino2(grueso)</title>
  <g
     inkscape:groupmode="layer"
     id="layer1"
     inkscape:label="Layer 1"
     style="display:none;mix-blend-mode:normal">
    <rect
       style="fill:#000000;stroke:#ffffff;stroke-opacity:1"
       id="rect2"
       width="321.05142"
       height="342.1907"
       x="-4.8871508"
       y="-0.98471653"
       ry="0" />
  </g>
  <g
     id="Capa_2"
     data-name="Capa 2">
    <path
       class="cls-1"
       d="M475.94,300.54c27.66,18.6,56.34,5.4,56.34,5.4s21.43,30.86,34.29,35.57h26.14S606.42,340,596.57,321l-26-42.44-5.29-8.64"
       transform="translate(-331.09 -13.23)"
       id="path1"
       style="stroke:#ffffff;stroke-opacity:1;stroke-linecap:round" />
    <path
       class="cls-1"
       d="m 570.58,278.58 c 15.09849,-8.97007 23.30498,-44.74916 19.29339,-63.55071 -3.12085,-14.6268 -13.57175,-28.00253 -12.02757,-52.35591 C 577.37353,161.35651 578.66,98.44 578.66,98.44 c -0.0566,-2.938986 0.98861,-5.792775 2.93,-8 7.78,-8.87 27.92,-33 28.27,-45.06 0,0 3.36,-28.14 -27.14,-28.14 -30.5,0 -44.72,15.41 -53.15,29.7 -8.43,14.29 3.59918,100.00254 0,109.14 -1.39572,3.54339 -4.03871,12.85154 -26.29,16.35 h -58.43 c 0,0 -46.29,1.94 -73.29,63.65 0,0 -13.29,35.57 -33,59.14 0,0 56.14,10.29 63,-33.43 0,0 -6.86,55.29 27.43,82.71 h 21.43 c 0,0 12.86,-9.43 1.29,-24 9.59946,-4.57113 17.92226,-11.44096 24.23,-20 7.54782,-10.33159 11.26698,-22.96685 10.52,-35.74"
       transform="translate(-331.09,-13.23)"
       id="path2"
       style="fill:#ffffff;fill-opacity:0;stroke:#ffffff;stroke-linecap:round;stroke-linejoin:round;stroke-opacity:1"
       sodipodi:nodetypes="csccccssscccccccccc" />
    <circle
       class="cls-2"
       cx="242.62"
       cy="32.89"
       r="6.77"
       id="circle2"
       style="fill:#ffffff;stroke:#f8f8f8;stroke-opacity:1" />
  </g>
</svg>
